<svg width="60" height="21" viewBox="0 0 60 21" fill="none" xmlns="http://www.w3.org/2000/svg">
<path d="M3.95306 3.776C3.95306 4.704 4.27306 5.504 4.91306 6.176C5.58506 6.848 6.54506 7.552 7.79306 8.288C9.00906 8.992 9.90506 9.552 10.4811 9.968C11.0891 10.352 11.6331 10.912 12.1131 11.648C12.5931 12.352 12.8331 13.216 12.8331 14.24C12.8331 15.328 12.5611 16.352 12.0171 17.312C11.4731 18.272 10.6571 19.056 9.56906 19.664C8.48106 20.24 7.18506 20.528 5.68106 20.528C3.92106 20.528 2.25706 20.096 0.689063 19.232C0.497063 19.04 0.401063 18.848 0.401063 18.656L0.305063 13.904C0.305063 13.808 0.385063 13.76 0.545063 13.76C0.737063 13.728 0.849063 13.744 0.881063 13.808C1.39306 15.408 2.24106 16.768 3.42506 17.888C4.60906 19.008 5.80906 19.568 7.02506 19.568C7.69706 19.568 8.22506 19.36 8.60906 18.944C9.02506 18.528 9.23306 17.92 9.23306 17.12C9.23306 15.936 8.89706 15.008 8.22506 14.336C7.55306 13.632 6.56106 12.912 5.24906 12.176C4.12906 11.568 3.28106 11.072 2.70506 10.688C2.12906 10.304 1.61706 9.76 1.16906 9.056C0.721063 8.352 0.497063 7.488 0.497063 6.464C0.497063 4.576 1.16906 3.2 2.51306 2.336C3.85706 1.44 5.50506 0.991999 7.45706 0.991999C8.19306 0.991999 8.84906 1.04 9.42506 1.136C10.0331 1.232 10.7051 1.424 11.4411 1.712C11.7291 1.808 11.8731 1.984 11.8731 2.24C11.8731 3.04 11.8571 3.664 11.8251 4.112L11.7771 6.512C11.7771 6.608 11.6811 6.656 11.4891 6.656C11.2971 6.656 11.2011 6.608 11.2011 6.512C11.2011 5.904 10.9451 5.248 10.4331 4.544C9.92106 3.808 9.24906 3.184 8.41706 2.672C7.61706 2.16 6.78506 1.904 5.92106 1.904C4.60906 1.904 3.95306 2.528 3.95306 3.776ZM50.8929 19.424C51.0209 19.424 51.0849 19.52 51.0849 19.712C51.0849 19.904 51.0209 20 50.8929 20C50.0609 20 49.4049 19.984 48.9249 19.952L46.0449 19.904L43.2609 19.952C42.7489 19.984 42.0769 20 41.2449 20C41.1489 20 41.1009 19.904 41.1009 19.712C41.1009 19.52 41.1489 19.424 41.2449 19.424C42.2369 19.424 42.9089 19.2 43.2609 18.752C43.6449 18.272 43.8369 17.392 43.8369 16.112V9.2C43.8369 7.472 43.5329 6.192 42.9249 5.36C42.3489 4.528 41.4529 4.112 40.2369 4.112C39.4049 4.112 38.5889 4.288 37.7889 4.64C36.9889 4.992 36.3009 5.472 35.7249 6.08V6.368V16.112C35.7249 17.392 35.9009 18.272 36.2529 18.752C36.6369 19.2 37.3249 19.424 38.3169 19.424C38.4449 19.424 38.5089 19.52 38.5089 19.712C38.5089 19.904 38.4449 20 38.3169 20C37.4849 20 36.8289 19.984 36.3489 19.952L33.4689 19.904L30.6849 19.952C30.1729 19.984 29.5009 20 28.6689 20C28.5729 20 28.5249 19.904 28.5249 19.712C28.5249 19.52 28.5729 19.424 28.6689 19.424C29.6609 19.424 30.3329 19.2 30.6849 18.752C31.0689 18.272 31.2609 17.392 31.2609 16.112V9.2C31.2609 7.472 30.9569 6.192 30.3489 5.36C29.7729 4.528 28.8769 4.112 27.6609 4.112C26.8929 4.112 26.1249 4.272 25.3569 4.592C24.6209 4.88 23.9649 5.296 23.3889 5.84V16.112C23.3889 17.392 23.5649 18.272 23.9169 18.752C24.3009 19.2 24.9889 19.424 25.9809 19.424C26.0769 19.424 26.1249 19.52 26.1249 19.712C26.1249 19.904 26.0769 20 25.9809 20C25.1489 20 24.4929 19.984 24.0129 19.952L21.1329 19.904L18.3009 19.952C17.8209 19.984 17.1649 20 16.3329 20C16.2369 20 16.1889 19.904 16.1889 19.712C16.1889 19.52 16.2369 19.424 16.3329 19.424C17.3249 19.424 17.9969 19.2 18.3489 18.752C18.7009 18.272 18.8769 17.392 18.8769 16.112V7.088C18.8769 6.096 18.7489 5.376 18.4929 4.928C18.2689 4.448 17.9009 4.208 17.3889 4.208C16.8449 4.208 16.0769 4.432 15.0849 4.88H14.9889C14.8929 4.88 14.8129 4.8 14.7489 4.64C14.7169 4.48 14.7329 4.384 14.7969 4.352L21.4689 1.088C21.6609 1.024 21.7729 0.991999 21.8049 0.991999C22.1569 0.991999 22.4929 1.344 22.8129 2.048C23.1329 2.72 23.3249 3.632 23.3889 4.784C25.5649 2.192 27.9009 0.895998 30.3969 0.895998C31.9009 0.895998 33.1009 1.264 33.9969 2C34.8929 2.736 35.4369 3.792 35.6289 5.168C37.8369 2.32 40.2849 0.895998 42.9729 0.895998C44.7009 0.895998 46.0129 1.392 46.9089 2.384C47.8369 3.376 48.3009 4.88 48.3009 6.896V16.112C48.3009 17.392 48.4769 18.272 48.8289 18.752C49.2129 19.2 49.9009 19.424 50.8929 19.424ZM56.8134 20.528C55.9174 20.528 55.1974 20.272 54.6534 19.76C54.1414 19.216 53.8854 18.496 53.8854 17.6C53.8854 16.768 54.1414 16.096 54.6534 15.584C55.1974 15.072 55.9174 14.816 56.8134 14.816C57.7094 14.816 58.3974 15.072 58.8774 15.584C59.3894 16.064 59.6454 16.736 59.6454 17.6C59.6454 18.528 59.3894 19.248 58.8774 19.76C58.3974 20.272 57.7094 20.528 56.8134 20.528Z" fill="#19273A"/>
</svg>
